<svg id="Capa_2" data-name="Capa 2" xmlns="http://www.w3.org/2000/svg" viewBox="0 0 587.44 795.13"><defs><style>.cls-1{fill:#fff;}</style></defs><title>logo</title><path class="cls-1" d="M517.16,809.41H248.48a20,20,0,1,1,0-40h198.1l-52.69-32.47a56.45,56.45,0,0,1-33.79-53.28c.37-12.25.82-24.32,1.29-37.1,1.13-30.76,2.31-62.56,2.31-96.84,0-68.55,4.85-93.71,39-140.07C431.19,371,503.32,278.43,542,229H233.09L362.84,402.51a20,20,0,0,1-32,24L177.14,221a20,20,0,0,1,16-32H583a20,20,0,0,1,15.74,32.35c-1.25,1.59-124.64,158.82-163.83,212-27.14,36.82-31.22,52.05-31.22,116.34,0,35-1.19,67.2-2.34,98.31-.47,12.71-.91,24.72-1.27,36.83a16.32,16.32,0,0,0,10.3,15.63,19.58,19.58,0,0,1,3.14,1.57l114.12,70.33a20,20,0,0,1-10.49,37Z" transform="translate(-15.57 -14.28)"/><path class="cls-1" d="M167.22,354.48c-83.62,0-151.65-68-151.65-151.64S83.6,51.19,167.22,51.19a152.1,152.1,0,0,1,142.61,100,20,20,0,0,1-37.61,13.63A111.59,111.59,0,1,0,201.5,309.12a20,20,0,1,1,12.26,38.07A151.43,151.43,0,0,1,167.22,354.48Z" transform="translate(-15.57 -14.28)"/><path class="cls-1" d="M387.53,180.73A20,20,0,0,1,369,153.2L420.37,26.76A20,20,0,0,1,438.9,14.28H578.07a20,20,0,0,1,0,40H452.37l-46.3,114A20,20,0,0,1,387.53,180.73Z" transform="translate(-15.57 -14.28)"/></svg>